<svg width="1920" height="1080" viewBox="0 0 1920 1080" fill="none" xmlns="http://www.w3.org/2000/svg">
<rect width="1920" height="1080" fill="black"/>
<path d="M119.86 273.168L404.895 282.042C410.173 282.206 415.452 282.37 420.73 282.534C415.452 282.699 410.173 282.863 404.895 283.028L119.86 291.902C114.582 292.066 109.304 292.231 104.025 292.395L104.025 272.675C109.304 272.839 114.582 273.003 119.86 273.168Z" fill="#BCFF00"/>
<path d="M404.896 286.293L119.861 277.418C114.583 277.254 109.304 277.09 104.026 276.926C109.304 276.762 114.583 276.597 119.861 276.433L404.896 267.558C410.174 267.394 415.452 267.23 420.73 267.065L420.73 286.786C415.452 286.622 410.174 286.457 404.896 286.293Z" fill="#BCFF00"/>
<path d="M268.94 137.208L260.066 422.242C259.902 427.521 259.738 432.799 259.574 438.077C259.409 432.799 259.245 427.521 259.081 422.242L250.206 137.208C250.042 131.93 249.877 126.651 249.713 121.372L269.434 121.372C269.269 126.651 269.105 131.93 268.94 137.208Z" fill="#BCFF00"/>
<path d="M255.819 422.245L264.694 137.211C264.858 131.933 265.022 126.654 265.186 121.376C265.35 126.654 265.515 131.933 265.679 137.211L274.554 422.245C274.718 427.524 274.882 432.803 275.047 438.081L255.326 438.081C255.491 432.803 255.655 427.524 255.819 422.245Z" fill="#BCFF00"/>
<path d="M367.792 183.588L159.967 378.863C156.119 382.479 152.27 386.096 148.422 389.712C152.038 385.864 155.654 382.015 159.271 378.166L354.545 170.341C358.161 166.493 361.777 162.644 365.393 158.796L379.338 172.74C375.489 176.356 371.641 179.972 367.792 183.588Z" fill="#BCFF00"/>
<path d="M156.967 375.872L364.792 180.597C368.641 176.981 372.489 173.364 376.338 169.748C372.722 173.596 369.105 177.445 365.489 181.294L170.215 389.119C166.599 392.967 162.982 396.816 159.366 400.665L145.422 386.72C149.27 383.104 153.119 379.488 156.967 375.872Z" fill="#BCFF00"/>
<path d="M358.519 385.143L163.244 177.318C159.628 173.47 156.011 169.621 152.395 165.772C156.244 169.389 160.093 173.005 163.941 176.621L371.766 371.896C375.615 375.512 379.463 379.128 383.312 382.744L369.367 396.689C365.751 392.84 362.135 388.992 358.519 385.143Z" fill="#BCFF00"/>
<path d="M166.247 174.316L361.521 382.141C365.137 385.99 368.754 389.838 372.37 393.687C368.522 390.071 364.673 386.454 360.824 382.838L153 187.564C149.151 183.947 145.302 180.331 141.454 176.715L155.398 162.771C159.015 166.619 162.631 170.468 166.247 174.316Z" fill="#BCFF00"/>
<path d="M313.721 412.834L207.16 148.319C205.187 143.421 203.213 138.522 201.239 133.624C203.514 138.39 205.788 143.156 208.062 147.923L330.872 405.296C333.146 410.062 335.42 414.828 337.694 419.594L319.641 427.529C317.667 422.631 315.694 417.732 313.721 412.834Z" fill="#BCFF00"/>
<path d="M211.045 146.604L317.605 411.119C319.579 416.018 321.553 420.916 323.526 425.814C321.252 421.048 318.978 416.282 316.703 411.516L193.894 154.142C191.62 149.376 189.345 144.61 187.071 139.844L205.125 131.909C207.098 136.807 209.072 141.706 211.045 146.604Z" fill="#BCFF00"/>
<path d="M195.376 405.681L325.541 151.949C327.951 147.25 330.362 142.55 332.772 137.852C330.658 142.691 328.545 147.531 326.431 152.371L212.303 413.71C210.189 418.549 208.076 423.389 205.963 428.228L188.145 419.777C190.555 415.079 192.965 410.38 195.376 405.681Z" fill="#BCFF00"/>
<path d="M329.376 153.765L199.211 407.498C196.8 412.197 194.39 416.896 191.98 421.595C194.093 416.755 196.207 411.915 198.321 407.076L312.449 145.737C314.563 140.897 316.676 136.058 318.789 131.218L336.607 139.669C334.197 144.368 331.787 149.066 329.376 153.765Z" fill="#BCFF00"/>
<path d="M133.1 219.381L393.271 336.148C398.089 338.31 402.907 340.472 407.725 342.635C402.782 340.776 397.839 338.918 392.895 337.059L125.965 236.703C121.022 234.845 116.079 232.987 111.136 231.128L118.646 212.894C123.464 215.056 128.282 217.219 133.1 219.381Z" fill="#BCFF00"/>
<path d="M391.656 340.076L131.485 223.309C126.667 221.146 121.849 218.984 117.031 216.822C121.974 218.68 126.917 220.539 131.86 222.397L398.791 322.753C403.734 324.612 408.677 326.47 413.62 328.328L406.109 346.562C401.292 344.4 396.474 342.238 391.656 340.076Z" fill="#BCFF00"/>
<path d="M395.722 228.995L130.726 334.354C125.818 336.305 120.911 338.257 116.004 340.208C120.78 337.955 125.557 335.702 130.333 333.45L388.262 211.81C393.038 209.558 397.814 207.305 402.591 205.052L410.443 223.142C405.536 225.093 400.629 227.044 395.722 228.995Z" fill="#BCFF00"/>
<path d="M129.038 330.467L394.034 225.109C398.941 223.158 403.849 221.206 408.756 219.255C403.98 221.507 399.203 223.76 394.427 226.013L136.498 347.652C131.722 349.905 126.945 352.157 122.169 354.41L114.316 336.32C119.224 334.369 124.131 332.418 129.038 330.467Z" fill="#BCFF00"/>
<path d="M571.189 285.586V273.857H623.973V285.586H571.189Z" fill="#0052FF"/>
<path d="M835.111 285.586V273.857H887.895V285.586H835.111Z" fill="#0052FF"/>
<path d="M723.68 121.37L735.409 121.37L735.409 174.153L723.68 174.153L723.68 121.37Z" fill="#0052FF"/>
<path d="M723.68 385.293L735.409 385.293L735.409 438.077L723.68 438.077L723.68 385.293Z" fill="#0052FF"/>
<path d="M764.863 125.25L776.193 128.286L762.532 179.272L751.202 176.236L764.863 125.25Z" fill="#0052FF"/>
<path d="M696.557 380.184L707.887 383.22L694.225 434.205L682.895 431.169L696.557 380.184Z" fill="#0052FF"/>
<path d="M803.646 139.661L813.805 145.526L787.413 191.238L777.255 185.373L803.646 139.661Z" fill="#0052FF"/>
<path d="M671.684 368.221L681.842 374.086L655.45 419.798L645.292 413.933L671.684 368.221Z" fill="#0052FF"/>
<path d="M837.369 163.605L845.663 171.9L808.34 209.223L800.045 200.929L837.369 163.605Z" fill="#0052FF"/>
<path d="M650.748 350.23L659.042 358.525L621.718 395.848L613.424 387.554L650.748 350.23Z" fill="#0052FF"/>
<path d="M863.75 195.481L869.615 205.639L823.903 232.031L818.038 221.873L863.75 195.481Z" fill="#0052FF"/>
<path d="M635.188 327.446L641.052 337.605L595.34 363.996L589.475 353.838L635.188 327.446Z" fill="#0052FF"/>
<path d="M880.988 233.085L884.024 244.415L833.039 258.076L830.003 246.746L880.988 233.085Z" fill="#0052FF"/>
<path d="M626.057 301.398L629.093 312.729L578.107 326.39L575.071 315.06L626.057 301.398Z" fill="#0052FF"/>
<path d="M884.023 315.066L880.988 326.396L830.002 312.735L833.038 301.405L884.023 315.066Z" fill="#0052FF"/>
<path d="M629.1 246.762L626.064 258.092L575.078 244.43L578.114 233.1L629.1 246.762Z" fill="#0052FF"/>
<path d="M869.621 353.833L863.756 363.991L818.044 337.599L823.909 327.441L869.621 353.833Z" fill="#0052FF"/>
<path d="M641.057 221.876L635.192 232.034L589.48 205.642L595.344 195.484L641.057 221.876Z" fill="#0052FF"/>
<path d="M845.67 387.565L837.376 395.859L800.052 358.535L808.346 350.241L845.67 387.565Z" fill="#0052FF"/>
<path d="M659.049 200.949L650.755 209.243L613.431 171.919L621.725 163.625L659.049 200.949Z" fill="#0052FF"/>
<path d="M813.811 413.938L803.652 419.803L777.26 374.09L787.419 368.226L813.811 413.938Z" fill="#0052FF"/>
<path d="M681.848 185.373L671.689 191.238L645.297 145.526L655.456 139.661L681.848 185.373Z" fill="#0052FF"/>
<path d="M776.201 431.176L764.871 434.212L751.21 383.226L762.54 380.19L776.201 431.176Z" fill="#0052FF"/>
<path d="M707.895 176.243L696.564 179.279L682.903 128.294L694.233 125.258L707.895 176.243Z" fill="#0052FF"/>
<path d="M1048.36 224.083C1079.09 141.374 1171.05 99.2383 1253.76 129.969C1336.47 160.7 1378.6 252.661 1347.87 335.37C1317.14 418.079 1225.18 460.216 1142.47 429.485C1059.76 398.754 1017.63 306.793 1048.36 224.083ZM1143.67 295.481L1137.62 356.416L1195.55 336.577L1251.63 361.16L1250.67 299.933L1291.38 254.193L1232.85 236.191L1201.92 183.339L1166.72 233.44L1106.9 246.516L1143.67 295.481Z" fill="#FF9FC2"/>
<path d="M1668.03 207.881C1628.36 207.881 1596.19 240.045 1596.19 279.72C1596.19 319.396 1628.36 351.559 1668.03 351.559C1707.71 351.559 1739.87 319.396 1739.87 279.72H1763.85L1763.84 280.959C1763.18 332.894 1721.21 374.871 1669.27 375.528L1668.03 375.536C1615.12 375.536 1572.22 332.638 1572.22 279.72L1572.22 278.482C1572.89 226.135 1615.53 183.904 1668.03 183.904L1669.27 183.912C1721.62 184.575 1763.85 227.216 1763.85 279.72H1739.87C1739.87 240.045 1707.71 207.881 1668.03 207.881Z" fill="#FF3500"/>
<path d="M1668.03 144.007C1593.08 144.007 1532.32 204.769 1532.32 279.723C1532.32 354.677 1593.08 415.44 1668.03 415.44C1742.99 415.44 1803.75 354.677 1803.75 279.723H1827.73C1827.73 367.92 1756.23 439.417 1668.03 439.417C1579.84 439.417 1508.34 367.92 1508.34 279.723C1508.34 191.527 1579.84 120.03 1668.03 120.03C1756.23 120.03 1827.73 191.527 1827.73 279.723H1803.75C1803.75 204.769 1742.99 144.007 1668.03 144.007Z" fill="#FF3500"/>
<path d="M1668.03 254.171C1682.14 254.171 1693.58 265.611 1693.58 279.722C1693.58 293.833 1682.14 305.273 1668.03 305.273C1653.92 305.273 1642.48 293.833 1642.48 279.722C1642.48 265.611 1653.92 254.171 1668.03 254.171Z" fill="#FF3500"/>
<path d="M119.86 733.168L404.895 742.042C410.173 742.206 415.452 742.37 420.73 742.534C415.452 742.699 410.173 742.863 404.895 743.028L119.86 751.902C114.582 752.066 109.304 752.231 104.025 752.395L104.025 732.675C109.304 732.839 114.582 733.003 119.86 733.168Z" fill="white"/>
<path d="M404.896 746.293L119.861 737.418C114.583 737.254 109.304 737.09 104.026 736.926C109.304 736.762 114.583 736.597 119.861 736.433L404.896 727.558C410.174 727.394 415.452 727.23 420.73 727.065L420.73 746.786C415.452 746.622 410.174 746.457 404.896 746.293Z" fill="white"/>
<path d="M268.94 597.208L260.066 882.242C259.902 887.521 259.738 892.799 259.574 898.077C259.409 892.799 259.245 887.521 259.081 882.242L250.206 597.208C250.042 591.93 249.877 586.651 249.713 581.372L269.434 581.372C269.269 586.651 269.105 591.93 268.94 597.208Z" fill="white"/>
<path d="M255.819 882.245L264.694 597.211C264.858 591.933 265.022 586.654 265.186 581.376C265.35 586.654 265.515 591.933 265.679 597.211L274.554 882.245C274.718 887.524 274.882 892.803 275.047 898.081L255.326 898.081C255.491 892.803 255.655 887.524 255.819 882.245Z" fill="white"/>
<path d="M367.792 643.588L159.967 838.863C156.119 842.479 152.27 846.096 148.422 849.712C152.038 845.864 155.654 842.015 159.271 838.166L354.545 630.341C358.161 626.493 361.777 622.644 365.393 618.796L379.338 632.74C375.489 636.356 371.641 639.972 367.792 643.588Z" fill="white"/>
<path d="M156.967 835.872L364.792 640.597C368.641 636.981 372.489 633.364 376.338 629.748C372.722 633.596 369.105 637.445 365.489 641.294L170.215 849.119C166.599 852.967 162.982 856.816 159.366 860.665L145.422 846.72C149.27 843.104 153.119 839.488 156.967 835.872Z" fill="white"/>
<path d="M358.519 845.143L163.244 637.318C159.628 633.47 156.011 629.621 152.395 625.772C156.244 629.389 160.093 633.005 163.941 636.621L371.766 831.896C375.615 835.512 379.463 839.128 383.312 842.744L369.367 856.689C365.751 852.84 362.135 848.992 358.519 845.143Z" fill="white"/>
<path d="M166.247 634.316L361.521 842.141C365.137 845.99 368.754 849.838 372.37 853.687C368.522 850.071 364.673 846.454 360.824 842.838L153 647.564C149.151 643.947 145.302 640.331 141.454 636.715L155.398 622.771C159.015 626.619 162.631 630.468 166.247 634.316Z" fill="white"/>
<path d="M313.721 872.834L207.16 608.319C205.187 603.421 203.213 598.522 201.239 593.624C203.514 598.39 205.788 603.156 208.062 607.923L330.872 865.296C333.146 870.062 335.42 874.828 337.694 879.594L319.641 887.529C317.667 882.631 315.694 877.732 313.721 872.834Z" fill="white"/>
<path d="M211.045 606.604L317.605 871.119C319.579 876.018 321.553 880.916 323.526 885.814C321.252 881.048 318.978 876.282 316.703 871.516L193.894 614.142C191.62 609.376 189.345 604.61 187.071 599.844L205.125 591.909C207.098 596.807 209.072 601.706 211.045 606.604Z" fill="white"/>
<path d="M195.376 865.681L325.541 611.949C327.951 607.25 330.362 602.55 332.772 597.852C330.658 602.691 328.545 607.531 326.431 612.371L212.303 873.71C210.189 878.549 208.076 883.389 205.963 888.228L188.145 879.777C190.555 875.079 192.965 870.38 195.376 865.681Z" fill="white"/>
<path d="M329.376 613.765L199.211 867.498C196.8 872.197 194.39 876.896 191.98 881.595C194.093 876.755 196.207 871.915 198.321 867.076L312.449 605.737C314.563 600.897 316.676 596.058 318.789 591.218L336.607 599.669C334.197 604.368 331.787 609.066 329.376 613.765Z" fill="white"/>
<path d="M133.1 679.381L393.271 796.148C398.089 798.31 402.907 800.472 407.725 802.635C402.782 800.776 397.839 798.918 392.895 797.059L125.965 696.703C121.022 694.845 116.079 692.987 111.136 691.128L118.646 672.894C123.464 675.056 128.282 677.219 133.1 679.381Z" fill="white"/>
<path d="M391.656 800.076L131.485 683.309C126.667 681.146 121.849 678.984 117.031 676.822C121.974 678.68 126.917 680.539 131.86 682.397L398.791 782.753C403.734 784.612 408.677 786.47 413.62 788.328L406.109 806.562C401.292 804.4 396.474 802.238 391.656 800.076Z" fill="white"/>
<path d="M395.722 688.995L130.726 794.354C125.818 796.305 120.911 798.257 116.004 800.208C120.78 797.955 125.557 795.702 130.333 793.45L388.262 671.81C393.038 669.558 397.814 667.305 402.591 665.052L410.443 683.142C405.536 685.093 400.629 687.044 395.722 688.995Z" fill="white"/>
<path d="M129.038 790.467L394.034 685.109C398.941 683.158 403.849 681.206 408.756 679.255C403.98 681.507 399.203 683.76 394.427 686.013L136.498 807.652C131.722 809.905 126.945 812.157 122.169 814.41L114.316 796.32C119.224 794.369 124.131 792.418 129.038 790.467Z" fill="white"/>
<path d="M571.189 745.586V733.857H623.973V745.586H571.189Z" fill="white"/>
<path d="M835.111 745.586V733.857H887.895V745.586H835.111Z" fill="white"/>
<path d="M723.68 581.37L735.409 581.37L735.409 634.153L723.68 634.153L723.68 581.37Z" fill="white"/>
<path d="M723.68 845.293L735.409 845.293L735.409 898.077L723.68 898.077L723.68 845.293Z" fill="white"/>
<path d="M764.863 585.25L776.193 588.286L762.532 639.272L751.202 636.236L764.863 585.25Z" fill="white"/>
<path d="M696.557 840.184L707.887 843.22L694.225 894.205L682.895 891.169L696.557 840.184Z" fill="white"/>
<path d="M803.646 599.661L813.805 605.526L787.413 651.238L777.255 645.373L803.646 599.661Z" fill="white"/>
<path d="M671.684 828.221L681.842 834.086L655.45 879.798L645.292 873.933L671.684 828.221Z" fill="white"/>
<path d="M837.369 623.605L845.663 631.9L808.34 669.223L800.045 660.929L837.369 623.605Z" fill="white"/>
<path d="M650.748 810.23L659.042 818.525L621.718 855.848L613.424 847.554L650.748 810.23Z" fill="white"/>
<path d="M863.75 655.481L869.615 665.639L823.903 692.031L818.038 681.873L863.75 655.481Z" fill="white"/>
<path d="M635.188 787.446L641.052 797.605L595.34 823.996L589.475 813.838L635.188 787.446Z" fill="white"/>
<path d="M880.988 693.085L884.024 704.415L833.039 718.076L830.003 706.746L880.988 693.085Z" fill="white"/>
<path d="M626.057 761.398L629.093 772.729L578.107 786.39L575.071 775.06L626.057 761.398Z" fill="white"/>
<path d="M884.023 775.066L880.988 786.396L830.002 772.735L833.038 761.405L884.023 775.066Z" fill="white"/>
<path d="M629.1 706.762L626.064 718.092L575.078 704.43L578.114 693.1L629.1 706.762Z" fill="white"/>
<path d="M869.621 813.833L863.756 823.991L818.044 797.599L823.909 787.441L869.621 813.833Z" fill="white"/>
<path d="M641.057 681.876L635.192 692.034L589.48 665.642L595.344 655.484L641.057 681.876Z" fill="white"/>
<path d="M845.67 847.565L837.376 855.859L800.052 818.535L808.346 810.241L845.67 847.565Z" fill="white"/>
<path d="M659.049 660.949L650.755 669.243L613.431 631.919L621.725 623.625L659.049 660.949Z" fill="white"/>
<path d="M813.811 873.938L803.652 879.803L777.26 834.09L787.419 828.226L813.811 873.938Z" fill="white"/>
<path d="M681.848 645.373L671.689 651.238L645.297 605.526L655.456 599.661L681.848 645.373Z" fill="white"/>
<path d="M776.201 891.176L764.871 894.212L751.21 843.226L762.54 840.19L776.201 891.176Z" fill="white"/>
<path d="M707.895 636.243L696.564 639.279L682.903 588.294L694.233 585.258L707.895 636.243Z" fill="white"/>
<path d="M1048.36 684.083C1079.09 601.374 1171.05 559.238 1253.76 589.969C1336.47 620.7 1378.6 712.661 1347.87 795.37C1317.14 878.079 1225.18 920.216 1142.47 889.485C1059.76 858.754 1017.63 766.793 1048.36 684.083ZM1143.67 755.481L1137.62 816.416L1195.55 796.577L1251.63 821.16L1250.67 759.933L1291.38 714.193L1232.85 696.191L1201.92 643.339L1166.72 693.44L1106.9 706.516L1143.67 755.481Z" fill="white"/>
<path d="M1668.03 667.881C1628.36 667.881 1596.19 700.045 1596.19 739.72C1596.19 779.396 1628.36 811.559 1668.03 811.559C1707.71 811.559 1739.87 779.396 1739.87 739.72H1763.85L1763.84 740.959C1763.18 792.894 1721.21 834.871 1669.27 835.528L1668.03 835.536C1615.12 835.536 1572.22 792.638 1572.22 739.72L1572.22 738.482C1572.89 686.135 1615.53 643.904 1668.03 643.904L1669.27 643.912C1721.62 644.575 1763.85 687.216 1763.85 739.72H1739.87C1739.87 700.045 1707.71 667.881 1668.03 667.881Z" fill="white"/>
<path d="M1668.03 604.007C1593.08 604.007 1532.32 664.769 1532.32 739.723C1532.32 814.677 1593.08 875.44 1668.03 875.44C1742.99 875.44 1803.75 814.677 1803.75 739.723H1827.73C1827.73 827.92 1756.23 899.417 1668.03 899.417C1579.84 899.417 1508.34 827.92 1508.34 739.723C1508.34 651.527 1579.84 580.03 1668.03 580.03C1756.23 580.03 1827.73 651.527 1827.73 739.723H1803.75C1803.75 664.769 1742.99 604.007 1668.03 604.007Z" fill="white"/>
<path d="M1668.03 714.171C1682.14 714.171 1693.58 725.611 1693.58 739.722C1693.58 753.833 1682.14 765.273 1668.03 765.273C1653.92 765.273 1642.48 753.833 1642.48 739.722C1642.48 725.611 1653.92 714.171 1668.03 714.171Z" fill="white"/>
</svg>
