<svg width="357" height="73" viewBox="0 0 357 73" fill="none" xmlns="http://www.w3.org/2000/svg">
<g clip-path="url(#clip0_234_233)">
<path d="M0 7.96338H15.6735V40.3553H0V7.96338Z" fill="black"/>
<path d="M15.668 40.353H31.3415V72.7449H15.668V40.353Z" fill="black"/>
<path d="M93.5213 39.8313C93.5213 29.4441 85.1012 21.0228 74.7141 21.0223C64.3266 21.0223 55.9051 29.4438 55.9051 39.8313C55.9056 50.2184 64.327 58.6385 74.7141 58.6385V72.7447L73.8638 72.7333C56.3605 72.2899 42.2537 58.1831 41.8103 40.6798L41.7988 39.8313C41.7988 21.6532 56.536 6.91602 74.7141 6.91602L75.5626 6.92748C93.3482 7.378 107.628 21.9372 107.628 39.8313L107.616 40.6798C107.166 58.465 92.6079 72.7443 74.7141 72.7447V58.6385C85.1009 58.638 93.5208 50.2181 93.5213 39.8313Z" fill="black"/>
<path d="M341.891 40C334.171 40 327.891 33.72 327.891 26C327.891 18.28 334.171 12 341.891 12C349.611 12 355.891 18.28 355.891 26C355.891 26.44 355.891 26.88 355.851 27.32L355.131 27.96H332.091C332.971 32.6 337.091 36 341.891 36C345.531 36 348.891 34.04 350.651 30.84L351.291 30.48H354.131L354.771 31.48C352.571 36.64 347.531 40 341.891 40ZM332.091 23.96H351.691C350.771 19.36 346.691 16 341.891 16C337.131 16 333.051 19.36 332.091 23.96Z" fill="black"/>
<path d="M310.766 40L310.086 39.28V12.72L310.766 12H313.366L314.046 12.72V36H326.006L326.686 36.72V39.28L326.006 40H310.766Z" fill="black"/>
<path d="M293.51 40C285.79 40 279.51 33.72 279.51 26C279.51 18.28 285.79 12 293.51 12C300.19 12 305.99 16.76 307.27 23.32L306.59 24.16H303.95L303.27 23.6C302.15 19.12 298.15 16 293.51 16C287.99 16 283.51 20.48 283.51 26C283.51 31.52 287.99 36 293.51 36C298.15 36 302.15 32.88 303.27 28.4L303.95 27.84H306.59L307.27 28.68C305.99 35.24 300.19 40 293.51 40Z" fill="black"/>
<path d="M262.385 40L261.705 39.28V12.72L262.385 12H267.625C273.505 12 278.305 16.8 278.305 22.68C278.305 26.8 275.905 30.56 272.185 32.32L276.425 36.52V37.52L274.585 39.36H273.585L267.585 33.32H265.665V39.28L264.985 40H262.385ZM265.665 29.36H267.545H267.625C271.345 29.36 274.345 26.36 274.345 22.68C274.345 18.96 271.345 16 267.625 16H267.545H265.665V29.36Z" fill="black"/>
<path d="M254.035 40L253.355 39.28V12.72L254.035 12H256.595L257.315 12.72V39.28L256.595 40H254.035Z" fill="black"/>
<path d="M236.781 40C229.061 40 222.781 33.72 222.781 26C222.781 18.28 229.061 12 236.781 12C243.461 12 249.261 16.76 250.541 23.32L249.861 24.16H247.221L246.541 23.6C245.421 19.12 241.421 16 236.781 16C231.261 16 226.781 20.48 226.781 26C226.781 31.52 231.261 36 236.781 36C241.421 36 245.421 32.88 246.541 28.4L247.221 27.84H249.861L250.541 28.68C249.261 35.24 243.461 40 236.781 40Z" fill="black"/>
<path d="M198.049 40L197.369 39.28V12.72L198.049 12H203.289C209.169 12 213.969 16.8 213.969 22.68C213.969 26.8 211.569 30.56 207.849 32.32L212.089 36.52V37.52L210.249 39.36H209.249L203.249 33.32H201.329V39.28L200.649 40H198.049ZM201.329 29.36H203.209H203.289C207.009 29.36 210.009 26.36 210.009 22.68C210.009 18.96 207.009 16 203.289 16H203.209H201.329V29.36Z" fill="black"/>
<path d="M180.559 40C172.839 40 166.559 33.72 166.559 26C166.559 18.28 172.839 12 180.559 12C188.279 12 194.559 18.28 194.559 26C194.559 26.44 194.559 26.88 194.519 27.32L193.799 27.96H170.759C171.639 32.6 175.759 36 180.559 36C184.199 36 187.559 34.04 189.319 30.84L189.959 30.48H192.799L193.439 31.48C191.239 36.64 186.199 40 180.559 40ZM170.759 23.96H190.359C189.439 19.36 185.359 16 180.559 16C175.799 16 171.719 19.36 170.759 23.96Z" fill="black"/>
<path d="M147.52 40L146.84 39.28V12.72L147.56 12H152.68L153.4 12.56L157.84 36.04H159.8V12.72L160.48 12.04H163.08L163.76 12.72V39.28L163.04 40H155.16V39.92L154.44 39.4L150.8 20.32V39.28L150.12 40H147.52Z" fill="black"/>
<path d="M126.201 40L125.521 39.28V12.72L126.241 12H131.361L132.081 12.56L136.521 36.04H138.481V12.72L139.161 12.04H141.761L142.441 12.72V39.28L141.721 40H133.841V39.92L133.121 39.4L129.481 20.32V39.28L128.801 40H126.201Z" fill="black"/>
<path d="M117.852 40L117.172 39.28V12.72L117.852 12H120.412L121.132 12.72V39.28L120.412 40H117.852Z" fill="black"/>
<path d="M276.686 70.8475L275.983 70.1436V55.2051L267.027 46.2499V46.0544V45.2723L268.826 43.4734H269.804L277.938 51.6074L286.072 43.4734H287.089L288.848 45.2723V46.2499L279.893 55.2051V70.1436L279.228 70.8475H276.686Z" fill="black"/>
<path d="M240.577 70.8475L239.873 70.1436V44.1773L240.577 43.4734H245.622L246.286 44.0209L250.627 66.976H253.13L257.471 44.0209L258.175 43.4734H263.18L263.884 44.1773V70.1436L263.18 70.8475H260.677L259.973 70.1436V51.6465L256.454 70.2609L255.75 70.8475H248.007L247.303 70.2609L243.784 51.6074V70.1436L243.08 70.8475H240.577Z" fill="black"/>
<path d="M223.046 70.8475C215.499 70.8475 209.359 64.7079 209.359 57.1604C209.359 49.613 215.499 43.4734 223.046 43.4734C230.594 43.4734 236.733 49.613 236.733 57.1604C236.733 57.5906 236.733 58.0208 236.694 58.4509L235.99 59.0766H213.465C214.326 63.6129 218.354 66.9369 223.046 66.9369C226.605 66.9369 229.89 65.0207 231.611 61.8922L232.236 61.5403H235.013L235.639 62.5179C233.488 67.5626 228.56 70.8475 223.046 70.8475ZM213.465 55.166H232.627C231.728 50.6689 227.739 47.384 223.046 47.384C218.393 47.384 214.404 50.6689 213.465 55.166Z" fill="black"/>
<path d="M186.614 70.8475L185.949 70.1436V44.1773L186.614 43.4734H194.161C201.709 43.4734 207.809 49.613 207.809 57.1604C207.809 64.7079 201.709 70.8475 194.161 70.8475H186.614ZM189.821 66.9369H194.161C199.558 66.9369 203.938 62.557 203.938 57.1604C203.938 51.7638 199.558 47.384 194.161 47.384H189.821V66.9369Z" fill="black"/>
<path d="M165.766 70.8475L165.062 70.1436V55.166L177.615 43.6689L178.046 43.4734H180.588L181.252 44.1773V70.1436L180.588 70.8475H178.046L177.381 70.1436V64.2777H168.934V70.1436L168.269 70.8475H165.766ZM168.934 60.3671H177.381V49.1437L168.934 56.8867V60.3671Z" fill="black"/>
<path d="M150.031 70.8475C142.483 70.8475 136.344 64.7079 136.344 57.1604C136.344 49.613 142.483 43.4734 150.031 43.4734C156.561 43.4734 162.232 48.127 163.483 54.5403L162.818 55.3616H160.237L159.573 54.8141C158.478 50.4342 154.567 47.384 150.031 47.384C144.634 47.384 140.254 51.7638 140.254 57.1604C140.254 62.557 144.634 66.9369 150.031 66.9369C154.567 66.9369 158.478 63.8866 159.573 59.5068L160.237 58.9593H162.818L163.483 59.7805C162.232 66.1939 156.561 70.8475 150.031 70.8475Z" fill="black"/>
<path d="M117.723 70.8472L117.02 70.1433V55.1658L129.573 43.6687L130.003 43.4731H132.545L133.209 44.1771V70.1433L132.545 70.8472H130.003L129.338 70.1433V64.2775H120.891V70.1433L120.226 70.8472H117.723ZM120.891 60.3669H129.338V49.1435L120.891 56.8865V60.3669Z" fill="black"/>
</g>
<defs>
<clipPath id="clip0_234_233">
<rect width="356.771" height="72.7451" fill="white"/>
</clipPath>
</defs>
</svg>
