<svg width="500" height="500" viewBox="0 0 500 500" fill="none" xmlns="http://www.w3.org/2000/svg">
<rect width="500" height="500" fill="black"/>
<path d="M61.7637 138.527H116.59V251.836H61.7637V138.527Z" fill="white"/>
<path d="M116.576 251.828H171.403V365.136H116.576V251.828Z" fill="white"/>
<path d="M388.892 250.003C388.892 213.668 359.439 184.21 323.104 184.208C286.768 184.208 257.309 213.667 257.309 250.003C257.311 286.338 286.769 315.791 323.104 315.791V365.136L320.13 365.096C258.902 363.545 209.556 314.199 208.005 252.971L207.965 250.003C207.965 186.415 259.516 134.864 323.104 134.864L326.072 134.904C388.287 136.48 438.237 187.409 438.237 250.003L438.197 252.971C436.621 315.185 385.697 365.134 323.104 365.136V315.791C359.438 315.79 388.891 286.337 388.892 250.003Z" fill="white"/>
</svg>
