<svg width="1920" height="1080" viewBox="0 0 1920 1080" fill="none" xmlns="http://www.w3.org/2000/svg">
<rect width="1920" height="1080" fill="#ECECEC"/>
<rect x="660" y="462.508" width="37.619" height="77.746" fill="black"/>
<rect x="697.619" y="541.254" width="37.619" height="77.746" fill="black"/>
<circle cx="839.318" cy="540" r="62.0714" stroke="black" stroke-width="33.8571"/>
<mask id="path-4-outside-1_216_74" maskUnits="userSpaceOnUse" x="937.127" y="471.508" width="322" height="145" fill="black">
<rect fill="white" x="937.127" y="471.508" width="322" height="145"/>
<path d="M944.397 539.508L942.792 537.808V475.116L944.397 473.416H950.44L952.139 475.116V537.808L950.44 539.508H944.397ZM965.051 539.508L963.446 537.808V475.116L965.145 473.416H977.23L978.93 474.738L989.41 530.161H994.036V475.116L995.642 473.511H1001.78L1003.38 475.116V537.808L1001.68 539.508H983.084V539.319L981.385 538.092L972.793 493.055V537.808L971.188 539.508H965.051ZM1016.32 539.508L1014.71 537.808V475.116L1016.41 473.416H1028.5L1030.2 474.738L1040.68 530.161H1045.3V475.116L1046.91 473.511H1053.04L1054.65 475.116V537.808L1052.95 539.508H1034.35V539.319L1032.65 538.092L1024.06 493.055V537.808L1022.45 539.508H1016.32ZM1095.24 539.508C1077.02 539.508 1062.2 524.684 1062.2 506.462C1062.2 488.24 1077.02 473.416 1095.24 473.416C1113.47 473.416 1128.29 488.24 1128.29 506.462C1128.29 507.501 1128.29 508.539 1128.2 509.578L1126.5 511.088H1072.11C1074.19 522.041 1083.92 530.066 1095.24 530.066C1103.84 530.066 1111.77 525.44 1115.92 517.886L1117.43 517.037H1124.14L1125.65 519.397C1120.45 531.577 1108.56 539.508 1095.24 539.508ZM1072.11 501.647H1118.38C1116.21 490.789 1106.57 482.858 1095.24 482.858C1084.01 482.858 1074.38 490.789 1072.11 501.647ZM1137.47 539.508L1135.87 537.808V475.116L1137.47 473.416H1149.84C1163.72 473.416 1175.05 484.746 1175.05 498.625C1175.05 508.35 1169.38 517.226 1160.6 521.38L1170.61 531.294V533.654L1166.27 537.997H1163.91L1149.75 523.74H1145.21V537.808L1143.61 539.508H1137.47ZM1145.21 514.393H1149.65H1149.84C1158.62 514.393 1165.7 507.312 1165.7 498.625C1165.7 489.845 1158.62 482.858 1149.84 482.858H1149.65H1145.21V514.393ZM972.061 615.508C953.839 615.508 939.015 600.684 939.015 582.462C939.015 564.24 953.839 549.416 972.061 549.416C987.829 549.416 1001.52 560.652 1004.54 576.136L1002.94 578.119H996.704L995.099 576.797C992.455 566.222 983.013 558.858 972.061 558.858C959.032 558.858 948.457 569.433 948.457 582.462C948.457 595.492 959.032 606.066 972.061 606.066C983.013 606.066 992.455 598.702 995.099 588.127L996.704 586.805H1002.94L1004.54 588.788C1001.52 604.272 987.829 615.508 972.061 615.508ZM1013.73 615.508L1012.13 613.808V551.116L1013.73 549.416H1019.78L1021.48 551.116V613.808L1019.78 615.508H1013.73ZM1034.39 615.508L1032.78 613.808V551.116L1034.39 549.416H1046.76C1060.64 549.416 1071.97 560.746 1071.97 574.625C1071.97 584.35 1066.3 593.226 1057.52 597.38L1067.53 607.294V609.654L1063.18 613.997H1060.82L1046.66 599.74H1042.13V613.808L1040.52 615.508H1034.39ZM1042.13 590.393H1046.57H1046.76C1055.54 590.393 1062.62 583.312 1062.62 574.625C1062.62 565.845 1055.54 558.858 1046.76 558.858H1046.57H1042.13V590.393ZM1108.8 615.508C1090.58 615.508 1075.75 600.684 1075.75 582.462C1075.75 564.24 1090.58 549.416 1108.8 549.416C1124.57 549.416 1138.26 560.652 1141.28 576.136L1139.67 578.119H1133.44L1131.84 576.797C1129.19 566.222 1119.75 558.858 1108.8 558.858C1095.77 558.858 1085.19 569.433 1085.19 582.462C1085.19 595.492 1095.77 606.066 1108.8 606.066C1119.75 606.066 1129.19 598.702 1131.84 588.127L1133.44 586.805H1139.67L1141.28 588.788C1138.26 604.272 1124.57 615.508 1108.8 615.508ZM1150.47 615.508L1148.87 613.808V551.116L1150.47 549.416H1156.61L1158.21 551.116V606.066H1186.44L1188.05 607.766V613.808L1186.44 615.508H1150.47ZM1224.88 615.508C1206.66 615.508 1191.84 600.684 1191.84 582.462C1191.84 564.24 1206.66 549.416 1224.88 549.416C1243.11 549.416 1257.93 564.24 1257.93 582.462C1257.93 583.501 1257.93 584.539 1257.83 585.578L1256.14 587.088H1201.75C1203.83 598.041 1213.55 606.066 1224.88 606.066C1233.48 606.066 1241.41 601.44 1245.56 593.886L1247.07 593.037H1253.77L1255.29 595.397C1250.09 607.577 1238.2 615.508 1224.88 615.508ZM1201.75 577.647H1248.02C1245.84 566.789 1236.21 558.858 1224.88 558.858C1213.65 558.858 1204.02 566.789 1201.75 577.647Z"/>
</mask>
<path d="M944.397 539.508L942.792 537.808V475.116L944.397 473.416H950.44L952.139 475.116V537.808L950.44 539.508H944.397ZM965.051 539.508L963.446 537.808V475.116L965.145 473.416H977.23L978.93 474.738L989.41 530.161H994.036V475.116L995.642 473.511H1001.78L1003.38 475.116V537.808L1001.68 539.508H983.084V539.319L981.385 538.092L972.793 493.055V537.808L971.188 539.508H965.051ZM1016.32 539.508L1014.71 537.808V475.116L1016.41 473.416H1028.5L1030.2 474.738L1040.68 530.161H1045.3V475.116L1046.91 473.511H1053.04L1054.65 475.116V537.808L1052.95 539.508H1034.35V539.319L1032.65 538.092L1024.06 493.055V537.808L1022.45 539.508H1016.32ZM1095.24 539.508C1077.02 539.508 1062.2 524.684 1062.2 506.462C1062.2 488.24 1077.02 473.416 1095.24 473.416C1113.47 473.416 1128.29 488.24 1128.29 506.462C1128.29 507.501 1128.29 508.539 1128.2 509.578L1126.5 511.088H1072.11C1074.19 522.041 1083.92 530.066 1095.24 530.066C1103.84 530.066 1111.77 525.44 1115.92 517.886L1117.43 517.037H1124.14L1125.65 519.397C1120.45 531.577 1108.56 539.508 1095.24 539.508ZM1072.11 501.647H1118.38C1116.21 490.789 1106.57 482.858 1095.24 482.858C1084.01 482.858 1074.38 490.789 1072.11 501.647ZM1137.47 539.508L1135.87 537.808V475.116L1137.47 473.416H1149.84C1163.72 473.416 1175.05 484.746 1175.05 498.625C1175.05 508.35 1169.38 517.226 1160.6 521.38L1170.61 531.294V533.654L1166.27 537.997H1163.91L1149.75 523.74H1145.21V537.808L1143.61 539.508H1137.47ZM1145.21 514.393H1149.65H1149.84C1158.62 514.393 1165.7 507.312 1165.7 498.625C1165.7 489.845 1158.62 482.858 1149.84 482.858H1149.65H1145.21V514.393ZM972.061 615.508C953.839 615.508 939.015 600.684 939.015 582.462C939.015 564.24 953.839 549.416 972.061 549.416C987.829 549.416 1001.52 560.652 1004.54 576.136L1002.94 578.119H996.704L995.099 576.797C992.455 566.222 983.013 558.858 972.061 558.858C959.032 558.858 948.457 569.433 948.457 582.462C948.457 595.492 959.032 606.066 972.061 606.066C983.013 606.066 992.455 598.702 995.099 588.127L996.704 586.805H1002.94L1004.54 588.788C1001.52 604.272 987.829 615.508 972.061 615.508ZM1013.73 615.508L1012.13 613.808V551.116L1013.73 549.416H1019.78L1021.48 551.116V613.808L1019.78 615.508H1013.73ZM1034.39 615.508L1032.78 613.808V551.116L1034.39 549.416H1046.76C1060.64 549.416 1071.97 560.746 1071.97 574.625C1071.97 584.35 1066.3 593.226 1057.52 597.38L1067.53 607.294V609.654L1063.18 613.997H1060.82L1046.66 599.74H1042.13V613.808L1040.52 615.508H1034.39ZM1042.13 590.393H1046.57H1046.76C1055.54 590.393 1062.62 583.312 1062.62 574.625C1062.62 565.845 1055.54 558.858 1046.76 558.858H1046.57H1042.13V590.393ZM1108.8 615.508C1090.58 615.508 1075.75 600.684 1075.75 582.462C1075.75 564.24 1090.58 549.416 1108.8 549.416C1124.57 549.416 1138.26 560.652 1141.28 576.136L1139.67 578.119H1133.44L1131.84 576.797C1129.19 566.222 1119.75 558.858 1108.8 558.858C1095.77 558.858 1085.19 569.433 1085.19 582.462C1085.19 595.492 1095.77 606.066 1108.8 606.066C1119.75 606.066 1129.19 598.702 1131.84 588.127L1133.44 586.805H1139.67L1141.28 588.788C1138.26 604.272 1124.57 615.508 1108.8 615.508ZM1150.47 615.508L1148.87 613.808V551.116L1150.47 549.416H1156.61L1158.21 551.116V606.066H1186.44L1188.05 607.766V613.808L1186.44 615.508H1150.47ZM1224.88 615.508C1206.66 615.508 1191.84 600.684 1191.84 582.462C1191.84 564.24 1206.66 549.416 1224.88 549.416C1243.11 549.416 1257.93 564.24 1257.93 582.462C1257.93 583.501 1257.93 584.539 1257.83 585.578L1256.14 587.088H1201.75C1203.83 598.041 1213.55 606.066 1224.88 606.066C1233.48 606.066 1241.41 601.44 1245.56 593.886L1247.07 593.037H1253.77L1255.29 595.397C1250.09 607.577 1238.2 615.508 1224.88 615.508ZM1201.75 577.647H1248.02C1245.84 566.789 1236.21 558.858 1224.88 558.858C1213.65 558.858 1204.02 566.789 1201.75 577.647Z" fill="black"/>
<path d="M944.397 539.508L943.67 540.194L943.966 540.508H944.397V539.508ZM942.792 537.808H941.792V538.206L942.065 538.495L942.792 537.808ZM942.792 475.116L942.065 474.429L941.792 474.718V475.116H942.792ZM944.397 473.416V472.416H943.966L943.67 472.73L944.397 473.416ZM950.44 473.416L951.147 472.709L950.854 472.416H950.44V473.416ZM952.139 475.116H953.139V474.702L952.846 474.409L952.139 475.116ZM952.139 537.808L952.846 538.515L953.139 538.223V537.808H952.139ZM950.44 539.508V540.508H950.854L951.147 540.215L950.44 539.508ZM944.397 539.508L945.124 538.821L943.519 537.122L942.792 537.808L942.065 538.495L943.67 540.194L944.397 539.508ZM942.792 537.808H943.792V475.116H942.792H941.792V537.808H942.792ZM942.792 475.116L943.519 475.802L945.124 474.103L944.397 473.416L943.67 472.73L942.065 474.429L942.792 475.116ZM944.397 473.416V474.416H950.44V473.416V472.416H944.397V473.416ZM950.44 473.416L949.733 474.123L951.432 475.823L952.139 475.116L952.846 474.409L951.147 472.709L950.44 473.416ZM952.139 475.116H951.139V537.808H952.139H953.139V475.116H952.139ZM952.139 537.808L951.432 537.101L949.733 538.801L950.44 539.508L951.147 540.215L952.846 538.515L952.139 537.808ZM950.44 539.508V538.508H944.397V539.508V540.508H950.44V539.508ZM965.051 539.508L964.324 540.194L964.62 540.508H965.051V539.508ZM963.446 537.808H962.446V538.206L962.719 538.495L963.446 537.808ZM963.446 475.116L962.738 474.409L962.446 474.702V475.116H963.446ZM965.145 473.416V472.416H964.731L964.438 472.709L965.145 473.416ZM977.23 473.416L977.844 472.627L977.573 472.416H977.23V473.416ZM978.93 474.738L979.912 474.552L979.842 474.181L979.544 473.949L978.93 474.738ZM989.41 530.161L988.427 530.346L988.581 531.161H989.41V530.161ZM994.036 530.161V531.161H995.036V530.161H994.036ZM994.036 475.116L993.329 474.409L993.036 474.702V475.116H994.036ZM995.642 473.511V472.511H995.227L994.934 472.804L995.642 473.511ZM1001.78 473.511L1002.49 472.804L1002.19 472.511H1001.78V473.511ZM1003.38 475.116H1004.38V474.702L1004.09 474.409L1003.38 475.116ZM1003.38 537.808L1004.09 538.515L1004.38 538.223V537.808H1003.38ZM1001.68 539.508V540.508H1002.1L1002.39 540.215L1001.68 539.508ZM983.084 539.508H982.084V540.508H983.084V539.508ZM983.084 539.319H984.084V538.808L983.67 538.508L983.084 539.319ZM981.385 538.092L980.402 538.279L980.477 538.669L980.799 538.902L981.385 538.092ZM972.793 493.055L973.775 492.868L971.793 493.055H972.793ZM972.793 537.808L973.52 538.495L973.793 538.206V537.808H972.793ZM971.188 539.508V540.508H971.619L971.915 540.194L971.188 539.508ZM965.051 539.508L965.778 538.821L964.173 537.122L963.446 537.808L962.719 538.495L964.324 540.194L965.051 539.508ZM963.446 537.808H964.446V475.116H963.446H962.446V537.808H963.446ZM963.446 475.116L964.153 475.823L965.852 474.123L965.145 473.416L964.438 472.709L962.738 474.409L963.446 475.116ZM965.145 473.416V474.416H977.23V473.416V472.416H965.145V473.416ZM977.23 473.416L976.616 474.206L978.316 475.527L978.93 474.738L979.544 473.949L977.844 472.627L977.23 473.416ZM978.93 474.738L977.947 474.924L988.427 530.346L989.41 530.161L990.393 529.975L979.912 474.552L978.93 474.738ZM989.41 530.161V531.161H994.036V530.161V529.161H989.41V530.161ZM994.036 530.161H995.036V475.116H994.036H993.036V530.161H994.036ZM994.036 475.116L994.744 475.823L996.349 474.218L995.642 473.511L994.934 472.804L993.329 474.409L994.036 475.116ZM995.642 473.511V474.511H1001.78V473.511V472.511H995.642V473.511ZM1001.78 473.511L1001.07 474.218L1002.68 475.823L1003.38 475.116L1004.09 474.409L1002.49 472.804L1001.78 473.511ZM1003.38 475.116H1002.38V537.808H1003.38H1004.38V475.116H1003.38ZM1003.38 537.808L1002.68 537.101L1000.98 538.801L1001.68 539.508L1002.39 540.215L1004.09 538.515L1003.38 537.808ZM1001.68 539.508V538.508H983.084V539.508V540.508H1001.68V539.508ZM983.084 539.508H984.084V539.319H983.084H982.084V539.508H983.084ZM983.084 539.319L983.67 538.508L981.97 537.281L981.385 538.092L980.799 538.902L982.499 540.13L983.084 539.319ZM981.385 538.092L982.367 537.904L973.775 492.868L972.793 493.055L971.81 493.242L980.402 538.279L981.385 538.092ZM972.793 493.055H971.793V537.808H972.793H973.793V493.055H972.793ZM972.793 537.808L972.066 537.122L970.461 538.821L971.188 539.508L971.915 540.194L973.52 538.495L972.793 537.808ZM971.188 539.508V538.508H965.051V539.508V540.508H971.188V539.508ZM1016.32 539.508L1015.59 540.194L1015.88 540.508H1016.32V539.508ZM1014.71 537.808H1013.71V538.206L1013.98 538.495L1014.71 537.808ZM1014.71 475.116L1014 474.409L1013.71 474.702V475.116H1014.71ZM1016.41 473.416V472.416H1016L1015.7 472.709L1016.41 473.416ZM1028.5 473.416L1029.11 472.627L1028.84 472.416H1028.5V473.416ZM1030.2 474.738L1031.18 474.552L1031.11 474.181L1030.81 473.949L1030.2 474.738ZM1040.68 530.161L1039.69 530.346L1039.85 531.161H1040.68V530.161ZM1045.3 530.161V531.161H1046.3V530.161H1045.3ZM1045.3 475.116L1044.59 474.409L1044.3 474.702V475.116H1045.3ZM1046.91 473.511V472.511H1046.49L1046.2 472.804L1046.91 473.511ZM1053.04 473.511L1053.75 472.804L1053.46 472.511H1053.04V473.511ZM1054.65 475.116H1055.65V474.702L1055.36 474.409L1054.65 475.116ZM1054.65 537.808L1055.36 538.515L1055.65 538.223V537.808H1054.65ZM1052.95 539.508V540.508H1053.36L1053.66 540.215L1052.95 539.508ZM1034.35 539.508H1033.35V540.508H1034.35V539.508ZM1034.35 539.319H1035.35V538.808L1034.93 538.508L1034.35 539.319ZM1032.65 538.092L1031.67 538.279L1031.74 538.669L1032.06 538.902L1032.65 538.092ZM1024.06 493.055L1025.04 492.868L1023.06 493.055H1024.06ZM1024.06 537.808L1024.78 538.495L1025.06 538.206V537.808H1024.06ZM1022.45 539.508V540.508H1022.88L1023.18 540.194L1022.45 539.508ZM1016.32 539.508L1017.04 538.821L1015.44 537.122L1014.71 537.808L1013.98 538.495L1015.59 540.194L1016.32 539.508ZM1014.71 537.808H1015.71V475.116H1014.71H1013.71V537.808H1014.71ZM1014.71 475.116L1015.42 475.823L1017.12 474.123L1016.41 473.416L1015.7 472.709L1014 474.409L1014.71 475.116ZM1016.41 473.416V474.416H1028.5V473.416V472.416H1016.41V473.416ZM1028.5 473.416L1027.88 474.206L1029.58 475.527L1030.2 474.738L1030.81 473.949L1029.11 472.627L1028.5 473.416ZM1030.2 474.738L1029.21 474.924L1039.69 530.346L1040.68 530.161L1041.66 529.975L1031.18 474.552L1030.2 474.738ZM1040.68 530.161V531.161H1045.3V530.161V529.161H1040.68V530.161ZM1045.3 530.161H1046.3V475.116H1045.3H1044.3V530.161H1045.3ZM1045.3 475.116L1046.01 475.823L1047.61 474.218L1046.91 473.511L1046.2 472.804L1044.59 474.409L1045.3 475.116ZM1046.91 473.511V474.511H1053.04V473.511V472.511H1046.91V473.511ZM1053.04 473.511L1052.34 474.218L1053.94 475.823L1054.65 475.116L1055.36 474.409L1053.75 472.804L1053.04 473.511ZM1054.65 475.116H1053.65V537.808H1054.65H1055.65V475.116H1054.65ZM1054.65 537.808L1053.94 537.101L1052.24 538.801L1052.95 539.508L1053.66 540.215L1055.36 538.515L1054.65 537.808ZM1052.95 539.508V538.508H1034.35V539.508V540.508H1052.95V539.508ZM1034.35 539.508H1035.35V539.319H1034.35H1033.35V539.508H1034.35ZM1034.35 539.319L1034.93 538.508L1033.24 537.281L1032.65 538.092L1032.06 538.902L1033.76 540.13L1034.35 539.319ZM1032.65 538.092L1033.63 537.904L1025.04 492.868L1024.06 493.055L1023.08 493.242L1031.67 538.279L1032.65 538.092ZM1024.06 493.055H1023.06V537.808H1024.06H1025.06V493.055H1024.06ZM1024.06 537.808L1023.33 537.122L1021.73 538.821L1022.45 539.508L1023.18 540.194L1024.78 538.495L1024.06 537.808ZM1022.45 539.508V538.508H1016.32V539.508V540.508H1022.45V539.508ZM1128.2 509.578L1128.86 510.325L1129.16 510.062L1129.19 509.668L1128.2 509.578ZM1126.5 511.088V512.088H1126.88L1127.16 511.836L1126.5 511.088ZM1072.11 511.088V510.088H1070.91L1071.13 511.275L1072.11 511.088ZM1115.92 517.886L1115.43 517.015L1115.18 517.155L1115.05 517.405L1115.92 517.886ZM1117.43 517.037V516.037H1117.17L1116.94 516.165L1117.43 517.037ZM1124.14 517.037L1124.98 516.498L1124.68 516.037H1124.14V517.037ZM1125.65 519.397L1126.57 519.789L1126.77 519.303L1126.49 518.858L1125.65 519.397ZM1072.11 501.647L1071.13 501.443L1070.88 502.647H1072.11V501.647ZM1118.38 501.647V502.647H1119.6L1119.36 501.451L1118.38 501.647ZM1095.24 539.508V538.508C1077.57 538.508 1063.2 524.132 1063.2 506.462H1062.2H1061.2C1061.2 525.237 1076.47 540.508 1095.24 540.508V539.508ZM1062.2 506.462H1063.2C1063.2 488.792 1077.57 474.416 1095.24 474.416V473.416V472.416C1076.47 472.416 1061.2 487.687 1061.2 506.462H1062.2ZM1095.24 473.416V474.416C1112.92 474.416 1127.29 488.792 1127.29 506.462H1128.29H1129.29C1129.29 487.687 1114.02 472.416 1095.24 472.416V473.416ZM1128.29 506.462H1127.29C1127.29 507.508 1127.29 508.501 1127.2 509.487L1128.2 509.578L1129.19 509.668C1129.29 508.577 1129.29 507.493 1129.29 506.462H1128.29ZM1128.2 509.578L1127.53 508.83L1125.83 510.341L1126.5 511.088L1127.16 511.836L1128.86 510.325L1128.2 509.578ZM1126.5 511.088V510.088H1072.11V511.088V512.088H1126.5V511.088ZM1072.11 511.088L1071.13 511.275C1073.3 522.706 1083.44 531.066 1095.24 531.066V530.066V529.066C1084.39 529.066 1075.08 521.376 1073.1 510.902L1072.11 511.088ZM1095.24 530.066V531.066C1104.2 531.066 1112.47 526.245 1116.8 518.368L1115.92 517.886L1115.05 517.405C1111.07 524.634 1103.48 529.066 1095.24 529.066V530.066ZM1115.92 517.886L1116.41 518.758L1117.92 517.908L1117.43 517.037L1116.94 516.165L1115.43 517.015L1115.92 517.886ZM1117.43 517.037V518.037H1124.14V517.037V516.037H1117.43V517.037ZM1124.14 517.037L1123.29 517.576L1124.8 519.936L1125.65 519.397L1126.49 518.858L1124.98 516.498L1124.14 517.037ZM1125.65 519.397L1124.73 519.005C1119.69 530.818 1108.15 538.508 1095.24 538.508V539.508V540.508C1108.96 540.508 1121.22 532.335 1126.57 519.789L1125.65 519.397ZM1072.11 501.647V502.647H1118.38V501.647V500.647H1072.11V501.647ZM1118.38 501.647L1119.36 501.451C1117.09 490.121 1107.05 481.858 1095.24 481.858V482.858V483.858C1106.1 483.858 1115.32 491.457 1117.4 501.843L1118.38 501.647ZM1095.24 482.858V481.858C1083.53 481.858 1073.5 490.124 1071.13 501.443L1072.11 501.647L1073.09 501.851C1075.26 491.454 1084.49 483.858 1095.24 483.858V482.858ZM1137.47 539.508L1136.74 540.194L1137.04 540.508H1137.47V539.508ZM1135.87 537.808H1134.87V538.206L1135.14 538.495L1135.87 537.808ZM1135.87 475.116L1135.14 474.429L1134.87 474.718V475.116H1135.87ZM1137.47 473.416V472.416H1137.04L1136.74 472.73L1137.47 473.416ZM1160.6 521.38L1160.18 520.476L1158.89 521.086L1159.9 522.09L1160.6 521.38ZM1170.61 531.294H1171.61V530.877L1171.32 530.583L1170.61 531.294ZM1170.61 533.654L1171.32 534.361L1171.61 534.068V533.654H1170.61ZM1166.27 537.997V538.997H1166.68L1166.98 538.704L1166.27 537.997ZM1163.91 537.997L1163.2 538.702L1163.49 538.997H1163.91V537.997ZM1149.75 523.74L1150.45 523.036L1150.16 522.74H1149.75V523.74ZM1145.21 523.74V522.74H1144.21V523.74H1145.21ZM1145.21 537.808L1145.94 538.495L1146.21 538.206V537.808H1145.21ZM1143.61 539.508V540.508H1144.04L1144.34 540.194L1143.61 539.508ZM1145.21 514.393H1144.21V515.393H1145.21V514.393ZM1145.21 482.858V481.858H1144.21V482.858H1145.21ZM1137.47 539.508L1138.2 538.821L1136.59 537.122L1135.87 537.808L1135.14 538.495L1136.74 540.194L1137.47 539.508ZM1135.87 537.808H1136.87V475.116H1135.87H1134.87V537.808H1135.87ZM1135.87 475.116L1136.59 475.802L1138.2 474.103L1137.47 473.416L1136.74 472.73L1135.14 474.429L1135.87 475.116ZM1137.47 473.416V474.416H1149.84V473.416V472.416H1137.47V473.416ZM1149.84 473.416V474.416C1163.17 474.416 1174.05 485.299 1174.05 498.625H1175.05H1176.05C1176.05 484.194 1164.27 472.416 1149.84 472.416V473.416ZM1175.05 498.625H1174.05C1174.05 507.961 1168.61 516.486 1160.18 520.476L1160.6 521.38L1161.03 522.284C1170.16 517.965 1176.05 508.74 1176.05 498.625H1175.05ZM1160.6 521.38L1159.9 522.09L1169.91 532.004L1170.61 531.294L1171.32 530.583L1161.31 520.669L1160.6 521.38ZM1170.61 531.294H1169.61V533.654H1170.61H1171.61V531.294H1170.61ZM1170.61 533.654L1169.9 532.947L1165.56 537.29L1166.27 537.997L1166.98 538.704L1171.32 534.361L1170.61 533.654ZM1166.27 537.997V536.997H1163.91V537.997V538.997H1166.27V537.997ZM1163.91 537.997L1164.62 537.292L1150.45 523.036L1149.75 523.74L1149.04 524.445L1163.2 538.702L1163.91 537.997ZM1149.75 523.74V522.74H1145.21V523.74V524.74H1149.75V523.74ZM1145.21 523.74H1144.21V537.808H1145.21H1146.21V523.74H1145.21ZM1145.21 537.808L1144.49 537.122L1142.88 538.821L1143.61 539.508L1144.34 540.194L1145.94 538.495L1145.21 537.808ZM1143.61 539.508V538.508H1137.47V539.508V540.508H1143.61V539.508ZM1145.21 514.393V515.393H1149.65V514.393V513.393H1145.21V514.393ZM1149.65 514.393V515.393H1149.84V514.393V513.393H1149.65V514.393ZM1149.84 514.393V515.393C1159.17 515.393 1166.7 507.868 1166.7 498.625H1165.7H1164.7C1164.7 506.756 1158.07 513.393 1149.84 513.393V514.393ZM1165.7 498.625H1166.7C1166.7 489.285 1159.17 481.858 1149.84 481.858V482.858V483.858C1158.08 483.858 1164.7 490.405 1164.7 498.625H1165.7ZM1149.84 482.858V481.858H1149.65V482.858V483.858H1149.84V482.858ZM1149.65 482.858V481.858H1145.21V482.858V483.858H1149.65V482.858ZM1145.21 482.858H1144.21V514.393H1145.21H1146.21V482.858H1145.21ZM1004.54 576.136L1005.32 576.765L1005.61 576.403L1005.52 575.945L1004.54 576.136ZM1002.94 578.119V579.119H1003.41L1003.71 578.748L1002.94 578.119ZM996.704 578.119L996.068 578.891L996.345 579.119H996.704V578.119ZM995.099 576.797L994.129 577.04L994.208 577.359L994.463 577.569L995.099 576.797ZM995.099 588.127L994.463 587.355L994.208 587.565L994.129 587.885L995.099 588.127ZM996.704 586.805V585.805H996.345L996.068 586.033L996.704 586.805ZM1002.94 586.805L1003.71 586.176L1003.41 585.805H1002.94V586.805ZM1004.54 588.788L1005.52 588.979L1005.61 588.521L1005.32 588.159L1004.54 588.788ZM972.061 615.508V614.508C954.391 614.508 940.015 600.132 940.015 582.462H939.015H938.015C938.015 601.237 953.286 616.508 972.061 616.508V615.508ZM939.015 582.462H940.015C940.015 564.792 954.391 550.416 972.061 550.416V549.416V548.416C953.286 548.416 938.015 563.687 938.015 582.462H939.015ZM972.061 549.416V550.416C987.352 550.416 1000.63 561.315 1003.56 576.328L1004.54 576.136L1005.52 575.945C1002.41 559.989 988.305 548.416 972.061 548.416V549.416ZM1004.54 576.136L1003.76 575.507L1002.16 577.49L1002.94 578.119L1003.71 578.748L1005.32 576.765L1004.54 576.136ZM1002.94 578.119V577.119H996.704V578.119V579.119H1002.94V578.119ZM996.704 578.119L997.339 577.347L995.734 576.025L995.099 576.797L994.463 577.569L996.068 578.891L996.704 578.119ZM995.099 576.797L996.069 576.555C993.313 565.533 983.47 557.858 972.061 557.858V558.858V559.858C982.556 559.858 991.597 566.912 994.129 577.04L995.099 576.797ZM972.061 558.858V557.858C958.479 557.858 947.457 568.88 947.457 582.462H948.457H949.457C949.457 569.985 959.584 559.858 972.061 559.858V558.858ZM948.457 582.462H947.457C947.457 596.044 958.479 607.066 972.061 607.066V606.066V605.066C959.584 605.066 949.457 594.939 949.457 582.462H948.457ZM972.061 606.066V607.066C983.47 607.066 993.313 599.391 996.069 588.37L995.099 588.127L994.129 587.885C991.597 598.012 982.556 605.066 972.061 605.066V606.066ZM995.099 588.127L995.734 588.899L997.339 587.577L996.704 586.805L996.068 586.033L994.463 587.355L995.099 588.127ZM996.704 586.805V587.805H1002.94V586.805V585.805H996.704V586.805ZM1002.94 586.805L1002.16 587.434L1003.76 589.417L1004.54 588.788L1005.32 588.159L1003.71 586.176L1002.94 586.805ZM1004.54 588.788L1003.56 588.596C1000.63 603.609 987.352 614.508 972.061 614.508V615.508V616.508C988.305 616.508 1002.41 604.935 1005.52 588.979L1004.54 588.788ZM1013.73 615.508L1013.01 616.194L1013.3 616.508H1013.73V615.508ZM1012.13 613.808H1011.13V614.206L1011.4 614.495L1012.13 613.808ZM1012.13 551.116L1011.4 550.429L1011.13 550.718V551.116H1012.13ZM1013.73 549.416V548.416H1013.3L1013.01 548.73L1013.73 549.416ZM1019.78 549.416L1020.48 548.709L1020.19 548.416H1019.78V549.416ZM1021.48 551.116H1022.48V550.702L1022.18 550.409L1021.48 551.116ZM1021.48 613.808L1022.18 614.515L1022.48 614.223V613.808H1021.48ZM1019.78 615.508V616.508H1020.19L1020.48 616.215L1019.78 615.508ZM1013.73 615.508L1014.46 614.821L1012.86 613.122L1012.13 613.808L1011.4 614.495L1013.01 616.194L1013.73 615.508ZM1012.13 613.808H1013.13V551.116H1012.13H1011.13V613.808H1012.13ZM1012.13 551.116L1012.86 551.802L1014.46 550.103L1013.73 549.416L1013.01 548.73L1011.4 550.429L1012.13 551.116ZM1013.73 549.416V550.416H1019.78V549.416V548.416H1013.73V549.416ZM1019.78 549.416L1019.07 550.123L1020.77 551.823L1021.48 551.116L1022.18 550.409L1020.48 548.709L1019.78 549.416ZM1021.48 551.116H1020.48V613.808H1021.48H1022.48V551.116H1021.48ZM1021.48 613.808L1020.77 613.101L1019.07 614.801L1019.78 615.508L1020.48 616.215L1022.18 614.515L1021.48 613.808ZM1019.78 615.508V614.508H1013.73V615.508V616.508H1019.78V615.508ZM1034.39 615.508L1033.66 616.194L1033.96 616.508H1034.39V615.508ZM1032.78 613.808H1031.78V614.206L1032.06 614.495L1032.78 613.808ZM1032.78 551.116L1032.06 550.429L1031.78 550.718V551.116H1032.78ZM1034.39 549.416V548.416H1033.96L1033.66 548.73L1034.39 549.416ZM1057.52 597.38L1057.09 596.476L1055.8 597.086L1056.82 598.09L1057.52 597.38ZM1067.53 607.294H1068.53V606.877L1068.23 606.583L1067.53 607.294ZM1067.53 609.654L1068.23 610.361L1068.53 610.068V609.654H1067.53ZM1063.18 613.997V614.997H1063.6L1063.89 614.704L1063.18 613.997ZM1060.82 613.997L1060.11 614.702L1060.41 614.997H1060.82V613.997ZM1046.66 599.74L1047.37 599.036L1047.08 598.74H1046.66V599.74ZM1042.13 599.74V598.74H1041.13V599.74H1042.13ZM1042.13 613.808L1042.86 614.495L1043.13 614.206V613.808H1042.13ZM1040.52 615.508V616.508H1040.96L1041.25 616.194L1040.52 615.508ZM1042.13 590.393H1041.13V591.393H1042.13V590.393ZM1042.13 558.858V557.858H1041.13V558.858H1042.13ZM1034.39 615.508L1035.11 614.821L1033.51 613.122L1032.78 613.808L1032.06 614.495L1033.66 616.194L1034.39 615.508ZM1032.78 613.808H1033.78V551.116H1032.78H1031.78V613.808H1032.78ZM1032.78 551.116L1033.51 551.802L1035.11 550.103L1034.39 549.416L1033.66 548.73L1032.06 550.429L1032.78 551.116ZM1034.39 549.416V550.416H1046.76V549.416V548.416H1034.39V549.416ZM1046.76 549.416V550.416C1060.08 550.416 1070.97 561.299 1070.97 574.625H1071.97H1072.97C1072.97 560.194 1061.19 548.416 1046.76 548.416V549.416ZM1071.97 574.625H1070.97C1070.97 583.961 1065.53 592.486 1057.09 596.476L1057.52 597.38L1057.95 598.284C1067.07 593.965 1072.97 584.74 1072.97 574.625H1071.97ZM1057.52 597.38L1056.82 598.09L1066.82 608.004L1067.53 607.294L1068.23 606.583L1058.22 596.669L1057.52 597.38ZM1067.53 607.294H1066.53V609.654H1067.53H1068.53V607.294H1067.53ZM1067.53 609.654L1066.82 608.947L1062.48 613.29L1063.18 613.997L1063.89 614.704L1068.23 610.361L1067.53 609.654ZM1063.18 613.997V612.997H1060.82V613.997V614.997H1063.18V613.997ZM1060.82 613.997L1061.53 613.292L1047.37 599.036L1046.66 599.74L1045.95 600.445L1060.11 614.702L1060.82 613.997ZM1046.66 599.74V598.74H1042.13V599.74V600.74H1046.66V599.74ZM1042.13 599.74H1041.13V613.808H1042.13H1043.13V599.74H1042.13ZM1042.13 613.808L1041.4 613.122L1039.8 614.821L1040.52 615.508L1041.25 616.194L1042.86 614.495L1042.13 613.808ZM1040.52 615.508V614.508H1034.39V615.508V616.508H1040.52V615.508ZM1042.13 590.393V591.393H1046.57V590.393V589.393H1042.13V590.393ZM1046.57 590.393V591.393H1046.76V590.393V589.393H1046.57V590.393ZM1046.76 590.393V591.393C1056.09 591.393 1063.62 583.868 1063.62 574.625H1062.62H1061.62C1061.62 582.756 1054.99 589.393 1046.76 589.393V590.393ZM1062.62 574.625H1063.62C1063.62 565.285 1056.08 557.858 1046.76 557.858V558.858V559.858C1054.99 559.858 1061.62 566.405 1061.62 574.625H1062.62ZM1046.76 558.858V557.858H1046.57V558.858V559.858H1046.76V558.858ZM1046.57 558.858V557.858H1042.13V558.858V559.858H1046.57V558.858ZM1042.13 558.858H1041.13V590.393H1042.13H1043.13V558.858H1042.13ZM1141.28 576.136L1142.06 576.765L1142.35 576.403L1142.26 575.945L1141.28 576.136ZM1139.67 578.119V579.119H1140.15L1140.45 578.748L1139.67 578.119ZM1133.44 578.119L1132.81 578.891L1133.08 579.119H1133.44V578.119ZM1131.84 576.797L1130.87 577.04L1130.95 577.359L1131.2 577.569L1131.84 576.797ZM1131.84 588.127L1131.2 587.355L1130.95 587.565L1130.87 587.885L1131.84 588.127ZM1133.44 586.805V585.805H1133.08L1132.81 586.033L1133.44 586.805ZM1139.67 586.805L1140.45 586.176L1140.15 585.805H1139.67V586.805ZM1141.28 588.788L1142.26 588.979L1142.35 588.521L1142.06 588.159L1141.28 588.788ZM1108.8 615.508V614.508C1091.13 614.508 1076.75 600.132 1076.75 582.462H1075.75H1074.75C1074.75 601.237 1090.02 616.508 1108.8 616.508V615.508ZM1075.75 582.462H1076.75C1076.75 564.792 1091.13 550.416 1108.8 550.416V549.416V548.416C1090.02 548.416 1074.75 563.687 1074.75 582.462H1075.75ZM1108.8 549.416V550.416C1124.09 550.416 1137.37 561.315 1140.3 576.328L1141.28 576.136L1142.26 575.945C1139.15 559.989 1125.04 548.416 1108.8 548.416V549.416ZM1141.28 576.136L1140.5 575.507L1138.9 577.49L1139.67 578.119L1140.45 578.748L1142.06 576.765L1141.28 576.136ZM1139.67 578.119V577.119H1133.44V578.119V579.119H1139.67V578.119ZM1133.44 578.119L1134.08 577.347L1132.47 576.025L1131.84 576.797L1131.2 577.569L1132.81 578.891L1133.44 578.119ZM1131.84 576.797L1132.81 576.555C1130.05 565.533 1120.21 557.858 1108.8 557.858V558.858V559.858C1119.29 559.858 1128.33 566.912 1130.87 577.04L1131.84 576.797ZM1108.8 558.858V557.858C1095.22 557.858 1084.19 568.88 1084.19 582.462H1085.19H1086.19C1086.19 569.985 1096.32 559.858 1108.8 559.858V558.858ZM1085.19 582.462H1084.19C1084.19 596.044 1095.22 607.066 1108.8 607.066V606.066V605.066C1096.32 605.066 1086.19 594.939 1086.19 582.462H1085.19ZM1108.8 606.066V607.066C1120.21 607.066 1130.05 599.391 1132.81 588.37L1131.84 588.127L1130.87 587.885C1128.33 598.012 1119.29 605.066 1108.8 605.066V606.066ZM1131.84 588.127L1132.47 588.899L1134.08 587.577L1133.44 586.805L1132.81 586.033L1131.2 587.355L1131.84 588.127ZM1133.44 586.805V587.805H1139.67V586.805V585.805H1133.44V586.805ZM1139.67 586.805L1138.9 587.434L1140.5 589.417L1141.28 588.788L1142.06 588.159L1140.45 586.176L1139.67 586.805ZM1141.28 588.788L1140.3 588.596C1137.37 603.609 1124.09 614.508 1108.8 614.508V615.508V616.508C1125.04 616.508 1139.15 604.935 1142.26 588.979L1141.28 588.788ZM1150.47 615.508L1149.74 616.194L1150.04 616.508H1150.47V615.508ZM1148.87 613.808H1147.87V614.206L1148.14 614.495L1148.87 613.808ZM1148.87 551.116L1148.14 550.429L1147.87 550.718V551.116H1148.87ZM1150.47 549.416V548.416H1150.04L1149.74 548.73L1150.47 549.416ZM1156.61 549.416L1157.34 548.73L1157.04 548.416H1156.61V549.416ZM1158.21 551.116H1159.21V550.718L1158.94 550.429L1158.21 551.116ZM1158.21 606.066H1157.21V607.066H1158.21V606.066ZM1186.44 606.066L1187.17 605.38L1186.88 605.066H1186.44V606.066ZM1188.05 607.766H1189.05V607.368L1188.78 607.079L1188.05 607.766ZM1188.05 613.808L1188.78 614.495L1189.05 614.206V613.808H1188.05ZM1186.44 615.508V616.508H1186.88L1187.17 616.194L1186.44 615.508ZM1150.47 615.508L1151.2 614.821L1149.59 613.122L1148.87 613.808L1148.14 614.495L1149.74 616.194L1150.47 615.508ZM1148.87 613.808H1149.87V551.116H1148.87H1147.87V613.808H1148.87ZM1148.87 551.116L1149.59 551.802L1151.2 550.103L1150.47 549.416L1149.74 548.73L1148.14 550.429L1148.87 551.116ZM1150.47 549.416V550.416H1156.61V549.416V548.416H1150.47V549.416ZM1156.61 549.416L1155.88 550.103L1157.49 551.802L1158.21 551.116L1158.94 550.429L1157.34 548.73L1156.61 549.416ZM1158.21 551.116H1157.21V606.066H1158.21H1159.21V551.116H1158.21ZM1158.21 606.066V607.066H1186.44V606.066V605.066H1158.21V606.066ZM1186.44 606.066L1185.72 606.753L1187.32 608.452L1188.05 607.766L1188.78 607.079L1187.17 605.38L1186.44 606.066ZM1188.05 607.766H1187.05V613.808H1188.05H1189.05V607.766H1188.05ZM1188.05 613.808L1187.32 613.122L1185.72 614.821L1186.44 615.508L1187.17 616.194L1188.78 614.495L1188.05 613.808ZM1186.44 615.508V614.508H1150.47V615.508V616.508H1186.44V615.508ZM1257.83 585.578L1258.5 586.325L1258.79 586.062L1258.83 585.668L1257.83 585.578ZM1256.14 587.088V588.088H1256.52L1256.8 587.836L1256.14 587.088ZM1201.75 587.088V586.088H1200.54L1200.77 587.275L1201.75 587.088ZM1245.56 593.886L1245.07 593.015L1244.82 593.155L1244.68 593.405L1245.56 593.886ZM1247.07 593.037V592.037H1246.81L1246.58 592.165L1247.07 593.037ZM1253.77 593.037L1254.62 592.498L1254.32 592.037H1253.77V593.037ZM1255.29 595.397L1256.21 595.789L1256.41 595.303L1256.13 594.858L1255.29 595.397ZM1201.75 577.647L1200.77 577.443L1200.52 578.647H1201.75V577.647ZM1248.02 577.647V578.647H1249.23L1249 577.451L1248.02 577.647ZM1224.88 615.508V614.508C1207.21 614.508 1192.84 600.132 1192.84 582.462H1191.84H1190.84C1190.84 601.237 1206.11 616.508 1224.88 616.508V615.508ZM1191.84 582.462H1192.84C1192.84 564.792 1207.21 550.416 1224.88 550.416V549.416V548.416C1206.11 548.416 1190.84 563.687 1190.84 582.462H1191.84ZM1224.88 549.416V550.416C1242.55 550.416 1256.93 564.792 1256.93 582.462H1257.93H1258.93C1258.93 563.687 1243.66 548.416 1224.88 548.416V549.416ZM1257.93 582.462H1256.93C1256.93 583.508 1256.93 584.501 1256.84 585.487L1257.83 585.578L1258.83 585.668C1258.93 584.577 1258.93 583.493 1258.93 582.462H1257.93ZM1257.83 585.578L1257.17 584.83L1255.47 586.341L1256.14 587.088L1256.8 587.836L1258.5 586.325L1257.83 585.578ZM1256.14 587.088V586.088H1201.75V587.088V588.088H1256.14V587.088ZM1201.75 587.088L1200.77 587.275C1202.94 598.706 1213.08 607.066 1224.88 607.066V606.066V605.066C1214.03 605.066 1204.72 597.376 1202.73 586.902L1201.75 587.088ZM1224.88 606.066V607.066C1233.84 607.066 1242.1 602.245 1246.44 594.368L1245.56 593.886L1244.68 593.405C1240.71 600.634 1233.11 605.066 1224.88 605.066V606.066ZM1245.56 593.886L1246.05 594.758L1247.56 593.908L1247.07 593.037L1246.58 592.165L1245.07 593.015L1245.56 593.886ZM1247.07 593.037V594.037H1253.77V593.037V592.037H1247.07V593.037ZM1253.77 593.037L1252.93 593.576L1254.44 595.936L1255.29 595.397L1256.13 594.858L1254.62 592.498L1253.77 593.037ZM1255.29 595.397L1254.37 595.005C1249.33 606.818 1237.79 614.508 1224.88 614.508V615.508V616.508C1238.6 616.508 1250.86 608.335 1256.21 595.789L1255.29 595.397ZM1201.75 577.647V578.647H1248.02V577.647V576.647H1201.75V577.647ZM1248.02 577.647L1249 577.451C1246.73 566.121 1236.69 557.858 1224.88 557.858V558.858V559.858C1235.74 559.858 1244.96 567.457 1247.03 577.843L1248.02 577.647ZM1224.88 558.858V557.858C1213.17 557.858 1203.13 566.124 1200.77 577.443L1201.75 577.647L1202.73 577.851C1204.9 567.454 1214.12 559.858 1224.88 559.858V558.858Z" fill="black" mask="url(#path-4-outside-1_216_74)"/>
</svg>
